<svg width="50" height="72" viewBox="0 0 50 72" fill="none" xmlns="http://www.w3.org/2000/svg">
<path d="M12.5 45.8336H43.75V41.667H12.525C11.5625 41.642 10.4167 41.2607 10.4167 39.5836C10.4167 37.9065 11.5625 37.5253 12.525 37.5003H43.75V8.33366C43.75 6.03574 41.8812 4.16699 39.5833 4.16699H12.5C9.9875 4.16699 6.25 5.83157 6.25 10.4169V39.5836C6.25 44.169 9.9875 45.8336 12.5 45.8336ZM10.4167 16.6669V10.4169C10.4167 8.73991 11.5625 8.35866 12.5 8.33366H39.5833V33.3336H10.4167V16.6669Z" fill="#B1B1B1"/>
<path d="M16.667 12.5H35.417V16.6667H16.667V12.5Z" fill="#B1B1B1"/>
<path d="M14.46 69.0001H17.79C18.77 69.0001 19.542 68.7601 20.106 68.2801C20.674 67.7961 20.958 67.1261 20.958 66.2701C20.958 65.5781 20.768 65.0201 20.388 64.5961C20.008 64.1681 19.462 63.9001 18.75 63.7921C19.638 63.3801 20.082 62.6481 20.082 61.5961C20.082 60.7721 19.812 60.1501 19.272 59.7301C18.736 59.3101 17.99 59.1001 17.034 59.1001H14.46V69.0001ZM16.032 63.2701V60.3241H16.686C17.302 60.3241 17.77 60.4481 18.09 60.6961C18.41 60.9441 18.57 61.3081 18.57 61.7881C18.57 62.2641 18.408 62.6301 18.084 62.8861C17.76 63.1421 17.294 63.2701 16.686 63.2701H16.032ZM16.032 67.7641V64.6321H17.28C17.936 64.6321 18.44 64.7701 18.792 65.0461C19.144 65.3221 19.32 65.7141 19.32 66.2221C19.32 66.7221 19.146 67.1041 18.798 67.3681C18.454 67.6321 17.948 67.7641 17.28 67.7641H16.032ZM22.8327 69.0001H25.3767C26.0807 69.0001 26.7347 68.8761 27.3387 68.6281C27.9467 68.3761 28.4767 68.0261 28.9287 67.5781C29.3847 67.1261 29.7387 66.6001 29.9907 66.0001C30.2427 65.4001 30.3687 64.7521 30.3687 64.0561C30.3687 63.3601 30.2407 62.7121 29.9847 62.1121C29.7327 61.5081 29.3787 60.9821 28.9227 60.5341C28.4707 60.0821 27.9427 59.7301 27.3387 59.4781C26.7347 59.2261 26.0807 59.1001 25.3767 59.1001H22.8327V69.0001ZM24.4047 67.5901V60.5101H25.2087C25.8687 60.5101 26.4607 60.6661 26.9847 60.9781C27.5087 61.2861 27.9227 61.7081 28.2267 62.2441C28.5307 62.7761 28.6827 63.3781 28.6827 64.0501C28.6827 64.7221 28.5307 65.3261 28.2267 65.8621C27.9227 66.3941 27.5087 66.8161 26.9847 67.1281C26.4607 67.4361 25.8687 67.5901 25.2087 67.5901H24.4047ZM32.5593 69.0001H34.1313V59.1001H32.5593V69.0001Z" fill="#B1B1B1"/>
</svg>
