<svg width="50" height="72" viewBox="0 0 50 72" fill="none" xmlns="http://www.w3.org/2000/svg">
<path d="M12.5 45.8334H43.75V41.6668H12.525C11.5625 41.6418 10.4167 41.2605 10.4167 39.5834C10.4167 37.9063 11.5625 37.5251 12.525 37.5001H43.75V8.33342C43.75 6.0355 41.8812 4.16675 39.5833 4.16675H12.5C9.9875 4.16675 6.25 5.83133 6.25 10.4167V39.5834C6.25 44.1688 9.9875 45.8334 12.5 45.8334ZM10.4167 16.6667V10.4167C10.4167 8.73967 11.5625 8.35842 12.5 8.33342H39.5833V33.3334H10.4167V16.6667Z" fill="#5A80E7"/>
<path d="M16.6667 12.5H35.4167V16.6667H16.6667V12.5Z" fill="#5A80E7"/>
<path d="M14.46 69H17.79C18.77 69 19.542 68.76 20.106 68.28C20.674 67.796 20.958 67.126 20.958 66.27C20.958 65.578 20.768 65.02 20.388 64.596C20.008 64.168 19.462 63.9 18.75 63.792C19.638 63.38 20.082 62.648 20.082 61.596C20.082 60.772 19.812 60.15 19.272 59.73C18.736 59.31 17.99 59.1 17.034 59.1H14.46V69ZM16.032 63.27V60.324H16.686C17.302 60.324 17.77 60.448 18.09 60.696C18.41 60.944 18.57 61.308 18.57 61.788C18.57 62.264 18.408 62.63 18.084 62.886C17.76 63.142 17.294 63.27 16.686 63.27H16.032ZM16.032 67.764V64.632H17.28C17.936 64.632 18.44 64.77 18.792 65.046C19.144 65.322 19.32 65.714 19.32 66.222C19.32 66.722 19.146 67.104 18.798 67.368C18.454 67.632 17.948 67.764 17.28 67.764H16.032ZM22.8327 69H25.3767C26.0807 69 26.7347 68.876 27.3387 68.628C27.9467 68.376 28.4767 68.026 28.9287 67.578C29.3847 67.126 29.7387 66.6 29.9907 66C30.2427 65.4 30.3687 64.752 30.3687 64.056C30.3687 63.36 30.2407 62.712 29.9847 62.112C29.7327 61.508 29.3787 60.982 28.9227 60.534C28.4707 60.082 27.9427 59.73 27.3387 59.478C26.7347 59.226 26.0807 59.1 25.3767 59.1H22.8327V69ZM24.4047 67.59V60.51H25.2087C25.8687 60.51 26.4607 60.666 26.9847 60.978C27.5087 61.286 27.9227 61.708 28.2267 62.244C28.5307 62.776 28.6827 63.378 28.6827 64.05C28.6827 64.722 28.5307 65.326 28.2267 65.862C27.9227 66.394 27.5087 66.816 26.9847 67.128C26.4607 67.436 25.8687 67.59 25.2087 67.59H24.4047ZM32.5593 69H34.1313V59.1H32.5593V69Z" fill="#5A80E7"/>
</svg>
