<svg width="50" height="71" viewBox="0 0 50 71" fill="none" xmlns="http://www.w3.org/2000/svg">
<path d="M24.9943 2.77783C19.102 2.77783 13.451 5.1191 9.28453 9.28657C5.11805 13.454 2.77734 19.1064 2.77734 25.0001C2.77734 25.7143 2.77734 26.4128 2.88843 27.1112C3.29736 31.3973 4.94233 35.4723 7.62335 38.8408C10.3044 42.2093 13.906 44.7262 17.9904 46.0856C22.0748 47.445 26.466 47.5883 30.6303 46.4981C34.7946 45.4079 38.5526 43.1311 41.4474 39.9446C44.3423 36.7581 46.2493 32.799 46.9367 28.5486C47.6241 24.2983 47.0622 19.9397 45.3194 16.0028C43.5766 12.0659 40.7279 8.72018 37.1196 6.37237C33.5113 4.02456 29.2988 2.77578 24.9943 2.77783ZM24.9943 5.95244C30.012 5.9568 34.8253 7.94189 38.3879 11.4762V13.0635C32.1157 10.9045 25.2976 10.9325 19.0433 13.1429C18.5437 12.6559 17.9165 12.3202 17.2342 12.1747H16.8375C16.647 11.508 16.4725 10.8413 16.3297 10.1588C16.1868 9.47625 16.1075 8.87307 16.0281 8.22228C18.783 6.73524 21.8638 5.95532 24.9943 5.95244ZM20.2335 15.2699C25.9967 13.3395 32.2427 13.4122 37.9594 15.4762C37.1862 19.509 35.4977 23.3103 33.0241 26.5874C32.3322 26.2943 31.5663 26.2239 30.8326 26.3861C30.0989 26.5482 29.4339 26.9348 28.9298 27.4921C28.3744 27.1747 27.819 26.8572 27.3429 26.4921C24.1394 24.3542 21.4641 21.5154 19.5194 18.1905C19.8337 17.8007 20.0625 17.3491 20.191 16.8651C20.3195 16.3811 20.3448 15.8754 20.2652 15.381L20.2335 15.2699ZM13.8858 9.55561C13.8858 9.88895 13.981 10.2382 14.0445 10.5715C14.1873 11.2699 14.3777 11.9524 14.5682 12.635C13.9605 12.9949 13.4714 13.5249 13.1612 14.1595C12.851 14.7941 12.7333 15.5057 12.8226 16.2064C10.3176 17.8426 8.08015 19.8557 6.18923 22.1747C6.56865 19.6632 7.44644 17.2529 8.77094 15.0858C10.0954 12.9187 11.8399 11.0384 13.9017 9.55561H13.8858ZM13.8858 34.4921C13.2663 34.7001 12.7127 35.068 12.2808 35.5585C11.8489 36.049 11.5541 36.6448 11.4261 37.2858H10.4104C7.84767 34.2284 6.31492 30.44 6.03053 26.4604L6.2051 26.1588C8.19227 23.0768 10.7901 20.4351 13.8382 18.3969C14.2952 18.8743 14.8727 19.2192 15.5096 19.3953C16.1465 19.5713 16.8192 19.5719 17.4564 19.3969C19.579 22.9847 22.4805 26.0496 25.9464 28.3651C26.597 28.7937 27.2636 29.1905 27.9301 29.5715C27.8767 30.1786 27.9749 30.7894 28.2157 31.3493C25.3116 33.6559 21.9617 35.3367 18.3768 36.2858C17.9611 35.5088 17.2827 34.905 16.4629 34.5823C15.6431 34.2595 14.7353 34.2388 13.9017 34.5239L13.8858 34.4921ZM24.9943 44.0159C21.7668 44.0168 18.5928 43.1917 15.7742 41.6191L16.2186 41.5239C16.8501 41.3166 17.4144 40.9436 17.8526 40.4439C18.2908 39.9441 18.587 39.3359 18.71 38.6826C22.7678 37.6475 26.556 35.753 29.8185 33.127C30.5935 33.58 31.5086 33.7302 32.3876 33.5484C33.2666 33.3667 34.0473 32.8661 34.5793 32.1429C36.8182 32.7251 39.1214 33.0238 41.4348 33.0318H42.2758C40.7449 36.3248 38.3046 39.1114 35.2428 41.0631C32.1809 43.0149 28.625 44.0504 24.9943 44.0477V44.0159ZM35.3251 29.8889C35.3236 29.2237 35.1427 28.5711 34.8014 28.0001C37.4424 24.5495 39.2803 20.5529 40.1811 16.3016C40.9746 16.672 41.7574 17.0847 42.5297 17.5397C44.2751 21.665 44.5111 26.2736 43.1963 30.5556C40.5616 30.7594 37.9113 30.5505 35.341 29.9366L35.3251 29.8889Z" fill="#5A80E7"/>
<path d="M7.634 68.192C8.206 68.192 8.762 68.098 9.302 67.91C9.842 67.718 10.328 67.444 10.76 67.088C11.196 66.728 11.542 66.294 11.798 65.786C12.054 65.274 12.182 64.7 12.182 64.064V62.786H7.604V64.016H10.58V64.232C10.58 64.728 10.442 65.166 10.166 65.546C9.894 65.922 9.538 66.216 9.098 66.428C8.658 66.64 8.192 66.746 7.7 66.746C7.096 66.746 6.55 66.586 6.062 66.266C5.574 65.942 5.186 65.498 4.898 64.934C4.614 64.37 4.472 63.722 4.472 62.99C4.472 62.314 4.6 61.7 4.856 61.148C5.116 60.592 5.49 60.15 5.978 59.822C6.47 59.49 7.066 59.324 7.766 59.324C8.31 59.324 8.842 59.428 9.362 59.636C9.882 59.84 10.322 60.122 10.682 60.482L11.438 59.27C10.966 58.842 10.406 58.51 9.758 58.274C9.114 58.038 8.446 57.92 7.754 57.92C6.986 57.92 6.294 58.058 5.678 58.334C5.066 58.606 4.544 58.982 4.112 59.462C3.68 59.942 3.35 60.49 3.122 61.106C2.894 61.722 2.78 62.372 2.78 63.056C2.78 63.776 2.904 64.448 3.152 65.072C3.4 65.696 3.744 66.242 4.184 66.71C4.624 67.174 5.138 67.538 5.726 67.802C6.314 68.062 6.95 68.192 7.634 68.192ZM13.2222 68H14.9082L15.8862 65.42H19.9062L20.8782 68H22.5702L18.6222 58.1H17.1642L13.2222 68ZM16.4202 64.04L17.8902 60.212L19.3722 64.04H16.4202ZM25.3926 68H26.9586V59.498H29.6586V58.1H22.6986V59.498H25.3926V68ZM31.489 68H33.061V64.112H33.763L36.727 68H38.719L35.461 63.938C36.201 63.786 36.781 63.452 37.201 62.936C37.625 62.42 37.837 61.782 37.837 61.022C37.837 60.102 37.543 59.386 36.955 58.874C36.367 58.358 35.573 58.1 34.573 58.1H31.489V68ZM33.061 62.792V59.36H34.111C34.771 59.36 35.283 59.51 35.647 59.81C36.015 60.11 36.199 60.528 36.199 61.064C36.199 61.604 36.015 62.028 35.647 62.336C35.279 62.64 34.767 62.792 34.111 62.792H33.061ZM39.1675 68H40.8535L41.8315 65.42H45.8515L46.8235 68H48.5155L44.5675 58.1H43.1095L39.1675 68ZM42.3655 64.04L43.8355 60.212L45.3175 64.04H42.3655Z" fill="#5A80E7"/>
</svg>
