<svg width="92" height="65" viewBox="0 0 92 65" fill="none" xmlns="http://www.w3.org/2000/svg">
<path d="M6.03875 32.3574C6.21497 33.0042 6.47544 33.6254 6.81353 34.2052C7.48172 35.3495 8.43843 36.3007 9.58919 36.9649C10.1729 37.301 10.7971 37.5622 11.4469 37.7421C12.1227 37.93 12.8215 38.0236 13.5232 38.0203C14.4078 38.03 15.2865 37.8756 16.1142 37.5649C16.8847 37.2721 17.595 36.8419 18.2101 36.2953C18.8279 35.7421 19.3437 35.0859 19.7346 34.3562C20.1474 33.5882 20.439 32.7615 20.5989 31.9052H15.2662C15.2017 31.901 15.1412 31.8725 15.097 31.8256C15.0528 31.7787 15.0282 31.7168 15.0282 31.6525C15.0282 31.5882 15.0528 31.5263 15.097 31.4794C15.1412 31.4324 15.2017 31.404 15.2662 31.3998H20.8394C20.9169 31.3986 20.993 31.4206 21.0579 31.4628C21.0888 31.4831 21.1131 31.5119 21.1278 31.5457C21.1425 31.5794 21.1471 31.6167 21.141 31.653C21.0058 32.6017 20.7141 33.5216 20.2777 34.3758C19.8613 35.1922 19.3068 35.9312 18.6385 36.5606C17.9715 37.1833 17.1932 37.6762 16.3437 38.0138C15.4396 38.3698 14.4747 38.5478 13.5024 38.5377C12.3919 38.5463 11.2914 38.3269 10.27 37.8931C9.19382 37.4309 8.2281 36.7474 7.43621 35.8877C6.64432 35.028 6.04417 34.0114 5.67514 32.9047C5.30611 31.798 5.17655 30.6262 5.29497 29.4661C5.41338 28.3061 5.77709 27.1841 6.36222 26.1738C6.71646 25.5655 7.14519 25.0032 7.63858 24.4999C8.13315 23.9941 8.69277 23.5555 9.30289 23.1956C10.4065 22.5509 11.6451 22.1687 12.9218 22.0787C14.1985 21.9888 15.4788 22.1936 16.6628 22.6771C17.6921 23.1049 18.625 23.7332 19.4067 24.5249C19.4367 24.5466 19.461 24.575 19.4777 24.6079C19.4944 24.6408 19.5031 24.6772 19.5029 24.714C19.4984 24.7813 19.4687 24.8445 19.4198 24.8912C19.3991 24.9162 19.3728 24.9361 19.343 24.9493C19.3133 24.9625 19.2808 24.9686 19.2483 24.9673C19.2112 24.9666 19.1746 24.9585 19.1408 24.9434C19.107 24.9282 19.0766 24.9064 19.0516 24.8792C18.3142 24.1373 17.4327 23.5526 16.4606 23.1608C15.5243 22.7783 14.5222 22.5808 13.5101 22.5793C12.4897 22.5749 11.4788 22.7749 10.5377 23.1673C8.67112 23.9327 7.18037 25.3952 6.38517 27.2411C5.96641 28.2062 5.75464 29.2476 5.76337 30.2987C5.76113 30.9942 5.85377 31.6867 6.03875 32.3574Z" fill="#0F1114"/>
<path d="M22.5114 30.2734C22.7466 29.7195 23.0609 29.2022 23.4446 28.7376C23.8238 28.2769 24.269 27.8741 24.7658 27.5419C25.266 27.2068 25.8112 26.9434 26.3853 26.7593C26.976 26.5683 27.5935 26.4721 28.2146 26.4746C28.2294 26.4744 28.2442 26.4766 28.2583 26.4811C28.2728 26.4857 28.2879 26.4879 28.3031 26.4876C28.3273 26.4775 28.3535 26.473 28.3796 26.4746C28.5654 26.4746 28.6583 26.5593 28.6583 26.7278C28.6583 26.8963 28.5654 26.98 28.3796 26.98H28.2146C27.4605 26.9767 26.714 27.1296 26.0225 27.4289C25.3438 27.7206 24.7273 28.1386 24.2063 28.6604C23.6821 29.1885 23.2621 29.8098 22.9682 30.4919C22.6618 31.2007 22.5063 31.9649 22.5114 32.7364V38.0939C22.5133 38.1309 22.5074 38.1678 22.4943 38.2024C22.4811 38.237 22.4609 38.2686 22.4349 38.295C22.4119 38.319 22.3843 38.3381 22.3537 38.3512C22.3231 38.3643 22.2901 38.371 22.2568 38.371C22.2235 38.371 22.1905 38.3643 22.1599 38.3512C22.1292 38.3381 22.1016 38.319 22.0786 38.295C22.0531 38.2683 22.0332 38.2367 22.0202 38.2022C22.0073 38.1676 22.0015 38.1308 22.0032 38.0939V26.7485C22.0015 26.7115 22.0072 26.6745 22.0202 26.6397C22.0331 26.605 22.053 26.5732 22.0786 26.5463C22.1015 26.5222 22.1291 26.503 22.1598 26.4899C22.1904 26.4768 22.2234 26.4701 22.2568 26.4702C22.4261 26.4702 22.5114 26.5626 22.5114 26.7485V30.2734Z" fill="#0F1114"/>
<path d="M28.0201 30.1464C28.3255 29.4307 28.7675 28.7807 29.3216 28.2323C29.8765 27.6871 30.5292 27.2502 31.246 26.9443C31.9899 26.6258 32.7921 26.4644 33.602 26.4704C34.4111 26.4649 35.2129 26.624 35.958 26.9378C36.6733 27.2375 37.3243 27.6707 37.8759 28.2138C38.4268 28.7599 38.8648 29.4079 39.1653 30.1214C39.4811 30.8652 39.6453 31.664 39.6483 32.4714V38.0941C39.6493 38.1655 39.6245 38.2349 39.5784 38.2897C39.554 38.3172 39.5236 38.3389 39.4895 38.353C39.4554 38.3671 39.4186 38.3734 39.3817 38.3713C39.3488 38.3714 39.3162 38.3641 39.2865 38.35C39.2568 38.3359 39.2307 38.3153 39.2101 38.2897C39.1636 38.2352 39.1388 38.1656 39.1402 38.0941L39.1271 34.9224C38.8981 35.4453 38.5945 35.9325 38.2255 36.3691C37.8564 36.8082 37.4267 37.1931 36.9492 37.5126C36.4644 37.834 35.9365 38.0858 35.381 38.2604C34.8059 38.4428 34.2056 38.5345 33.602 38.5321C32.7921 38.538 31.9899 38.3767 31.246 38.0582C29.7955 37.4416 28.64 36.2923 28.0201 34.8496C27.6999 34.1096 27.5377 33.3117 27.5436 32.5061C27.5378 31.6954 27.7 30.8921 28.0201 30.1464ZM28.4834 34.6322C29.0477 35.9523 30.1005 37.0061 31.4241 37.5756C32.1109 37.8732 32.8529 38.0239 33.602 38.018C34.3277 38.0238 35.0471 37.8845 35.7176 37.6082C36.3538 37.347 36.9353 36.9699 37.4322 36.4963C37.9221 36.024 38.3223 35.4676 38.6135 34.8539C38.9149 34.2218 39.0894 33.5373 39.1271 32.8387V32.7627C39.1284 32.7096 39.135 32.6568 39.1468 32.605C39.1584 32.5447 39.1753 32.4854 39.197 32.4279C39.2174 32.3759 39.2454 32.3272 39.2801 32.2833C39.2929 32.2646 39.31 32.2491 39.3299 32.2382C39.3498 32.2272 39.3721 32.2211 39.3948 32.2203C39.538 32.2203 39.6232 32.304 39.6483 32.4724V32.5105C39.6494 32.9289 39.6047 33.3462 39.515 33.755C39.4251 34.1564 39.2951 34.5478 39.1271 34.9235V32.8377C39.1271 32.7877 39.1271 32.7344 39.1336 32.68C39.1402 32.6257 39.1402 32.5714 39.1402 32.5094C39.1516 31.4265 38.8388 30.3647 38.2415 29.4592C37.6443 28.5538 36.7897 27.8455 35.7865 27.4247C35.0956 27.137 34.3542 26.9888 33.6053 26.9888C32.8563 26.9888 32.1149 27.137 31.4241 27.4247C30.7674 27.7036 30.1702 28.1046 29.6647 28.6062C29.1613 29.108 28.7602 29.7019 28.4834 30.3551C28.1929 31.0363 28.046 31.7695 28.0518 32.5094C28.0472 33.239 28.1942 33.9617 28.4834 34.6322Z" fill="#0F1114"/>
<path d="M41.3159 30.0832C41.5512 29.5551 41.859 29.062 42.2306 28.618C42.5984 28.1753 43.0308 27.7899 43.5135 27.4746C44.0014 27.1575 44.5314 26.9098 45.0882 26.7387C46.4503 26.3237 47.9157 26.3976 49.2287 26.9474C49.9466 27.2512 50.5998 27.6884 51.1531 28.2354C51.7154 28.7978 52.1603 29.4652 52.4622 30.1992C52.7642 30.9332 52.9172 31.7194 52.9125 32.5125C52.9181 33.3175 52.7578 34.115 52.4415 34.856C51.832 36.3011 50.6792 37.4525 49.2287 38.0646C47.9157 38.6144 46.4503 38.6883 45.0882 38.2733C44.5301 38.1016 43.9997 37.8508 43.5135 37.5287C43.0328 37.2105 42.6007 36.825 42.2306 36.3842C41.8579 35.9434 41.55 35.4523 41.3159 34.9255V42.3906C41.3171 42.4415 41.3028 42.4916 41.2747 42.5343C41.2467 42.5769 41.2062 42.61 41.1588 42.6292C41.1114 42.6484 41.0592 42.6529 41.0092 42.6419C40.9592 42.6309 40.9137 42.6051 40.8788 42.5678C40.8548 42.5449 40.8357 42.5174 40.8228 42.4869C40.8098 42.4565 40.8032 42.4237 40.8034 42.3906V26.7235C40.8007 26.6882 40.8061 26.6527 40.8192 26.6198C40.8322 26.5868 40.8526 26.5573 40.8788 26.5333C40.9291 26.4925 40.992 26.4702 41.0569 26.4702C41.1218 26.4702 41.1847 26.4925 41.235 26.5333C41.2615 26.5571 41.2822 26.5866 41.2955 26.6195C41.3087 26.6525 41.3142 26.6881 41.3115 26.7235L41.3159 30.0832ZM41.7443 34.6321C42.3086 35.9517 43.3609 37.0054 44.6839 37.5755C45.3751 37.8676 46.1184 38.0181 46.8694 38.0181C47.6204 38.0181 48.3638 37.8676 49.055 37.5755C50.3751 37.0076 51.4223 35.9524 51.976 34.6321C52.2614 33.9605 52.4064 33.2383 52.4022 32.5093C52.4136 31.4264 52.1007 30.3646 51.5035 29.4591C50.9063 28.5536 50.0516 27.8454 49.0484 27.4246C48.3574 27.1369 47.6158 26.9887 46.8667 26.9887C46.1176 26.9887 45.376 27.1369 44.685 27.4246C44.0287 27.7037 43.432 28.1047 42.9267 28.6061C42.412 29.1185 42.0045 29.7273 41.7277 30.3972C41.4508 31.0671 41.3101 31.785 41.3137 32.5093C41.3094 33.2387 41.4559 33.9613 41.7443 34.6321Z" fill="#0F1114"/>
<path d="M54.4387 29.9572C54.6389 29.457 54.9085 28.9873 55.2397 28.5616C55.5614 28.1451 55.9394 27.7749 56.3631 27.4616C56.7783 27.1558 57.2363 26.9123 57.7225 26.7388C58.2136 26.5654 58.7312 26.4778 59.2524 26.4801C59.9192 26.4707 60.5808 26.5987 61.1954 26.8562C61.7648 27.099 62.2647 27.4788 62.6498 27.9616C63.0683 28.4989 63.3769 29.1127 63.5579 29.7681C63.7814 30.5743 63.8885 31.4079 63.8759 32.2441V38.106C63.8783 38.1747 63.8554 38.242 63.8115 38.2951C63.7856 38.3223 63.7539 38.3433 63.7187 38.3565C63.6834 38.3696 63.6457 38.3747 63.6082 38.3712C63.5757 38.372 63.5435 38.3656 63.5138 38.3524C63.4841 38.3393 63.4578 38.3197 63.4367 38.2951C63.39 38.2433 63.3654 38.1755 63.3678 38.106V32.2441C63.3678 30.492 63.0014 29.18 62.2685 28.3083C61.5356 27.4366 60.5157 27.0018 59.2087 27.004C58.5738 27.0013 57.9461 27.1383 57.3706 27.4051C56.7948 27.6711 56.2783 28.0492 55.8517 28.517C54.9336 29.5327 54.4308 30.8533 54.442 32.2191V38.094C54.4437 38.1309 54.438 38.1677 54.425 38.2023C54.412 38.2368 54.3922 38.2684 54.3666 38.2951C54.3436 38.3191 54.316 38.3382 54.2854 38.3513C54.2548 38.3644 54.2218 38.3711 54.1885 38.3711C54.1552 38.3711 54.1222 38.3644 54.0916 38.3513C54.0609 38.3382 54.0333 38.3191 54.0103 38.2951C53.9846 38.2685 53.9645 38.2369 53.9513 38.2024C53.9382 38.1678 53.9322 38.131 53.9339 38.094V22.478C53.9323 22.4409 53.9383 22.4039 53.9515 22.3692C53.9646 22.3344 53.9846 22.3027 54.0103 22.2758C54.0331 22.2516 54.0607 22.2323 54.0914 22.2192C54.1221 22.2061 54.1551 22.1995 54.1885 22.1997C54.3568 22.1997 54.442 22.2932 54.442 22.478L54.4387 29.9572Z" fill="#0F1114"/>
<path d="M77.0409 23.152L70.4973 38.2202C70.4666 38.2847 70.4117 38.3347 70.3443 38.3593C70.3117 38.3717 70.2767 38.377 70.2418 38.3747C70.2069 38.3725 70.173 38.3628 70.1422 38.3463C70.0847 38.3159 70.0396 38.2668 70.0143 38.2072C70.002 38.1767 69.9968 38.1439 69.9991 38.1111C70.0013 38.0784 70.011 38.0465 70.0274 38.018L76.7972 22.3911C76.8144 22.3485 76.8456 22.3128 76.8857 22.29C76.9252 22.2661 76.9684 22.2488 77.0136 22.239C77.0684 22.2318 77.1242 22.2428 77.172 22.2705C77.2238 22.2975 77.2661 22.3396 77.2933 22.3911L84.2871 38.0191C84.3037 38.0519 84.3114 38.0884 84.3092 38.1251C84.3071 38.1617 84.2953 38.1972 84.2751 38.2278C84.2577 38.2599 84.2341 38.2881 84.2055 38.3109C84.177 38.3337 84.1442 38.3505 84.109 38.3604C84.0791 38.3729 84.0469 38.3793 84.0145 38.379C83.9821 38.3787 83.95 38.3718 83.9204 38.3588C83.8907 38.3458 83.864 38.3269 83.8419 38.3032C83.8199 38.2796 83.8029 38.2517 83.7921 38.2213L77.0409 23.152Z" fill="#0F1114"/>
<path d="M86.7427 38.1189C86.7408 38.1854 86.7133 38.2485 86.6659 38.2955C86.6186 38.3424 86.5549 38.3694 86.4881 38.3711C86.4213 38.3697 86.3576 38.3427 86.3104 38.2957C86.2631 38.2487 86.236 38.1853 86.2346 38.1189V22.4529C86.2318 22.4177 86.2372 22.3824 86.2503 22.3496C86.2633 22.3168 86.2838 22.2875 86.31 22.2637C86.36 22.2224 86.423 22.1997 86.4881 22.1997C86.5532 22.1997 86.6162 22.2224 86.6662 22.2637C86.6928 22.2872 86.7136 22.3165 86.7269 22.3493C86.7402 22.3821 86.7456 22.4176 86.7427 22.4529V38.1189Z" fill="#0F1114"/>
</svg>
