<svg width="50" height="71" viewBox="0 0 50 71" fill="none" xmlns="http://www.w3.org/2000/svg">
<path d="M18.067 33.2014H8.72249C7.51675 33.2014 6.311 32.7218 5.4067 31.8585C4.50239 30.9952 4 29.7482 4 28.5012V9.70024C4 8.45324 4.50239 7.30216 5.4067 6.34293C6.311 5.47962 7.41627 5 8.72249 5H41.2775C42.4833 5 43.689 5.47962 44.5933 6.34293C45.4976 7.20623 46 8.45324 46 9.70024V28.5012C46 29.7482 45.4976 30.8993 44.5933 31.8585C43.689 32.7218 42.5837 33.2014 41.2775 33.2014H29.7225L18.067 45V33.2014Z" stroke="#5A80E7" stroke-width="3.6" stroke-linecap="round" stroke-linejoin="round"/>
<path d="M37.7739 18H12.2261C10.9541 18 10 17.0722 10 16.0515V10.9485C10 9.83505 11.0601 9 12.2261 9H37.7739C39.0459 9 40 9.92784 40 10.9485V15.9588C40 17.0722 38.9399 18 37.7739 18Z" fill="#5A80E7"/>
<path d="M17.5682 23H11.4318C10.6136 23 10 22.3571 10 21.5C10 20.6429 10.6136 20 11.4318 20H17.5682C18.3864 20 19 20.6429 19 21.5C19 22.25 18.3864 23 17.5682 23Z" fill="#5A80E7"/>
<path d="M38.4865 23H21.5135C20.6487 23 20 22.3571 20 21.5C20 20.6429 20.6487 20 21.5135 20H38.4865C39.3514 20 40 20.6429 40 21.5C40 22.25 39.3514 23 38.4865 23Z" fill="#5A80E7"/>
<path d="M32.4318 25H38.5682C39.3864 25 40 25.6429 40 26.5C40 27.3571 39.3864 28 38.5682 28H32.4318C31.6136 28 31 27.3571 31 26.5C31 25.6429 31.6136 25 32.4318 25Z" fill="#5A80E7"/>
<path d="M11.5135 25H28.4865C29.3514 25 30 25.6429 30 26.5C30 27.3571 29.3514 28 28.4865 28H11.5135C10.6486 28 10 27.3571 10 26.5C10 25.6429 10.6486 25 11.5135 25Z" fill="#5A80E7"/>
<path d="M14.446 68H16.018V58.1H14.446V68ZM21.2145 68.192C21.8905 68.192 22.4865 68.078 23.0025 67.85C23.5225 67.618 23.9285 67.284 24.2205 66.848C24.5165 66.408 24.6645 65.878 24.6645 65.258C24.6645 64.67 24.5325 64.192 24.2685 63.824C24.0085 63.452 23.6505 63.14 23.1945 62.888C22.7385 62.632 22.2185 62.388 21.6345 62.156C21.3385 62.04 21.0645 61.926 20.8125 61.814C20.5645 61.698 20.3665 61.556 20.2185 61.388C20.0705 61.216 19.9965 60.99 19.9965 60.71C19.9965 60.35 20.1305 60.034 20.3985 59.762C20.6665 59.486 21.0465 59.348 21.5385 59.348C21.9585 59.348 22.3485 59.44 22.7085 59.624C23.0685 59.804 23.3605 60.012 23.5845 60.248L24.2685 59.054C24.0805 58.858 23.8405 58.674 23.5485 58.502C23.2605 58.33 22.9405 58.19 22.5885 58.082C22.2405 57.974 21.8805 57.92 21.5085 57.92C20.9045 57.92 20.3745 58.052 19.9185 58.316C19.4625 58.58 19.1065 58.926 18.8505 59.354C18.5985 59.782 18.4725 60.244 18.4725 60.74C18.4725 61.196 18.5765 61.584 18.7845 61.904C18.9925 62.22 19.2565 62.486 19.5765 62.702C19.9005 62.914 20.2325 63.092 20.5725 63.236C21.0485 63.432 21.4665 63.618 21.8265 63.794C22.1865 63.966 22.4665 64.168 22.6665 64.4C22.8665 64.628 22.9665 64.926 22.9665 65.294C22.9665 65.77 22.8025 66.13 22.4745 66.374C22.1465 66.614 21.7405 66.734 21.2565 66.734C20.8005 66.734 20.3945 66.648 20.0385 66.476C19.6825 66.3 19.3785 66.1 19.1265 65.876C18.8745 65.652 18.6745 65.464 18.5265 65.312L17.6985 66.584C17.8025 66.704 17.9545 66.854 18.1545 67.034C18.3545 67.21 18.6005 67.388 18.8925 67.568C19.1885 67.744 19.5285 67.892 19.9125 68.012C20.3005 68.132 20.7345 68.192 21.2145 68.192ZM30.3539 68.192C32.7859 68.192 34.0019 66.954 34.0019 64.478V58.1H32.4299V64.052C32.4299 64.952 32.2619 65.61 31.9259 66.026C31.5939 66.442 31.0699 66.65 30.3539 66.65C29.6379 66.65 29.1119 66.442 28.7759 66.026C28.4439 65.61 28.2779 64.952 28.2779 64.052V58.1H26.7119V64.478C26.7119 66.954 27.9259 68.192 30.3539 68.192Z" fill="#5A80E7"/>
</svg>
