<svg width="50" height="72" viewBox="0 0 50 72" fill="none" xmlns="http://www.w3.org/2000/svg">
<path d="M8 27H24M8 36H42M8 45H42M11 20H18C19.6569 20 21 18.6569 21 17V10C21 8.34315 19.6569 7 18 7H11C9.34315 7 8 8.34315 8 10V17C8 18.6569 9.34315 20 11 20Z" stroke="#5A80E7" stroke-width="4" stroke-linecap="round"/>
<path d="M8.87122 61.5771V70H7.41126V61.5771H4.63171V60.1733H11.6508V61.5771H8.87122Z" fill="#5A80E7"/>
<path d="M18.5688 69.8737C18.0728 70.0702 17.5206 70.1685 16.9123 70.1685C16.304 70.1685 15.7518 70.0702 15.2558 69.8737C14.7598 69.6771 14.3527 69.4151 14.0345 69.0875C13.7163 68.76 13.4496 68.3716 13.2343 67.9224C13.0191 67.4731 12.8647 67.0146 12.7711 66.5466C12.6775 66.0787 12.6307 65.592 12.6307 65.0867C12.6307 64.5813 12.6775 64.0946 12.7711 63.6267C12.8647 63.1588 13.0191 62.7002 13.2343 62.251C13.4496 61.8018 13.7163 61.4134 14.0345 61.0858C14.3527 60.7583 14.7598 60.4962 15.2558 60.2997C15.7518 60.1031 16.304 60.0049 16.9123 60.0049C17.5206 60.0049 18.0728 60.1031 18.5688 60.2997C19.0648 60.4962 19.4719 60.7583 19.7901 61.0858C20.1083 61.4134 20.375 61.8018 20.5903 62.251C20.8055 62.7002 20.96 63.1588 21.0535 63.6267C21.1471 64.0946 21.1939 64.5813 21.1939 65.0867C21.1939 65.592 21.1471 66.0787 21.0535 66.5466C20.96 67.0146 20.8055 67.4731 20.5903 67.9224C20.375 68.3716 20.1083 68.76 19.7901 69.0875C19.4719 69.4151 19.0648 69.6771 18.5688 69.8737ZM15.6208 68.4418C15.9951 68.657 16.4257 68.7647 16.9123 68.7647C17.399 68.7647 17.8295 68.6523 18.2038 68.4277C18.5782 68.1938 18.8683 67.8896 19.0742 67.5153C19.2801 67.1409 19.4298 66.7525 19.5234 66.3501C19.6263 65.9383 19.6778 65.5172 19.6778 65.0867C19.6778 64.6375 19.6263 64.207 19.5234 63.7952C19.4298 63.374 19.2801 62.981 19.0742 62.616C18.8683 62.251 18.5782 61.9609 18.2038 61.7456C17.8295 61.521 17.399 61.4087 16.9123 61.4087C16.4257 61.4087 15.9951 61.5257 15.6208 61.7596C15.2465 61.9843 14.9563 62.2837 14.7504 62.6581C14.5445 63.0324 14.3901 63.4255 14.2872 63.8373C14.1936 64.2397 14.1468 64.6562 14.1468 65.0867C14.1468 65.5359 14.1936 65.9711 14.2872 66.3922C14.3901 66.804 14.5445 67.1924 14.7504 67.5574C14.9563 67.9224 15.2465 68.2172 15.6208 68.4418Z" fill="#5A80E7"/>
<path d="M23.3731 70V60.1733H27.3178C28.4315 60.1733 29.2504 60.4635 29.7745 61.0437C30.2986 61.6239 30.5606 62.3352 30.5606 63.1775C30.5606 63.9636 30.2892 64.6609 29.7464 65.2692C29.2036 65.8775 28.3941 66.1816 27.3178 66.1816H24.8331V70H23.3731ZM27.4021 64.7778C27.9636 64.7778 28.3754 64.6234 28.6374 64.3146C28.9088 63.9964 29.0445 63.6174 29.0445 63.1775C29.0445 62.7563 28.9135 62.3867 28.6514 62.0685C28.3988 61.7409 27.9823 61.5771 27.4021 61.5771H24.8331V64.7778H27.4021Z" fill="#5A80E7"/>
<path d="M32.3131 70V60.1733H33.773V70H32.3131Z" fill="#5A80E7"/>
<path d="M42.3355 70L39.57 64.8621L37.8293 66.9678V70H36.3693V60.1733H37.8293V64.9323L41.6196 60.1733H43.3041L40.5527 63.6267L44.0482 70H42.3355Z" fill="#5A80E7"/>
</svg>
