<svg width="50" height="72" viewBox="0 0 50 72" fill="none" xmlns="http://www.w3.org/2000/svg">
<path d="M8 27H24M8 36H42M8 45H42M11 20H18C19.6569 20 21 18.6569 21 17V10C21 8.34315 19.6569 7 18 7H11C9.34315 7 8 8.34315 8 10V17C8 18.6569 9.34315 20 11 20Z" stroke="#A9ACB6" stroke-width="4" stroke-linecap="round"/>
<path d="M12.0312 61.6641H9.37109V69H7.90039V61.6641H5.26367V60.4688H12.0312V61.6641ZM16.291 65.7129H14.6387V69H13.1562V60.4688H16.1562C17.1406 60.4688 17.9004 60.6895 18.4355 61.1309C18.9707 61.5723 19.2383 62.2109 19.2383 63.0469C19.2383 63.6172 19.0996 64.0957 18.8223 64.4824C18.5488 64.8652 18.166 65.1602 17.6738 65.3672L19.5898 68.9238V69H18.002L16.291 65.7129ZM14.6387 64.5234H16.1621C16.6621 64.5234 17.0527 64.3984 17.334 64.1484C17.6152 63.8945 17.7559 63.5488 17.7559 63.1113C17.7559 62.6543 17.625 62.3008 17.3633 62.0508C17.1055 61.8008 16.7188 61.6719 16.2031 61.6641H14.6387V64.5234ZM25.6309 65.1914H22.127V67.8164H26.2227V69H20.6445V60.4688H26.1816V61.6641H22.127V64.0195H25.6309V65.1914ZM34.1973 69H32.7148L28.9121 62.9473V69H27.4297V60.4688H28.9121L32.7266 66.5449V60.4688H34.1973V69ZM35.9492 69V60.4688H38.4688C39.2227 60.4688 39.8906 60.6367 40.4727 60.9727C41.0586 61.3086 41.5117 61.7852 41.832 62.4023C42.1523 63.0195 42.3125 63.7266 42.3125 64.5234V64.9512C42.3125 65.7598 42.1504 66.4707 41.8262 67.084C41.5059 67.6973 41.0469 68.1699 40.4492 68.502C39.8555 68.834 39.1738 69 38.4043 69H35.9492ZM37.4316 61.6641V67.8164H38.3984C39.1758 67.8164 39.7715 67.5742 40.1855 67.0898C40.6035 66.6016 40.8164 65.9023 40.8242 64.9922V64.5176C40.8242 63.5918 40.623 62.8848 40.2207 62.3965C39.8184 61.9082 39.2344 61.6641 38.4688 61.6641H37.4316Z" fill="#A9ACB6"/>
</svg>
